<svg width="32" height="20" viewBox="0 0 32 20" fill="none" xmlns="http://www.w3.org/2000/svg">
<path fill-rule="evenodd" clip-rule="evenodd" d="M7.82332 14.8956H5.1152L3.08443 6.86044C2.98805 6.49083 2.78339 6.16406 2.48234 6.01006C1.73103 5.62303 0.903148 5.31502 0 5.15967V4.85032H4.36257C4.96467 4.85032 5.41625 5.31502 5.49151 5.85471L6.54518 11.6507L9.25198 4.85032H11.8848L7.82332 14.8956ZM13.3896 14.8956H10.832L12.938 4.85032H15.4956L13.3896 14.8956ZM18.8058 7.63171C18.8811 7.09068 19.3326 6.78132 19.8595 6.78132C20.6874 6.70365 21.5892 6.859 22.3418 7.24468L22.7934 5.08189C22.0408 4.77253 21.2129 4.61719 20.4616 4.61719C17.9792 4.61719 16.1729 6.00861 16.1729 7.93972C16.1729 9.40882 17.4524 10.1802 18.3556 10.6449C19.3326 11.1083 19.709 11.4176 19.6337 11.881C19.6337 12.576 18.8811 12.8854 18.1298 12.8854C17.2266 12.8854 16.3235 12.6537 15.4969 12.2667L15.0453 14.4308C15.9485 14.8165 16.9256 14.9718 17.8287 14.9718C20.6121 15.0482 22.3418 13.6581 22.3418 11.5716C22.3418 8.94412 18.8058 8.79011 18.8058 7.63171ZM31.2911 14.8956L29.2604 4.85032H27.0791C26.6275 4.85032 26.1759 5.15967 26.0254 5.62303L22.2649 14.8956H24.8978L25.4233 13.4278H28.6583L28.9593 14.8956H31.2911ZM27.4555 7.55461L28.2068 11.3405H26.1008L27.4555 7.55461Z" fill="#007AFF"/>
</svg>
