<svg width="40" height="40" viewBox="0 0 40 40" fill="none" xmlns="http://www.w3.org/2000/svg">
    <g clip-path="url(#clip0_188_34403)">
        <g clip-path="url(#clip1_188_34403)">
            <path fill-rule="evenodd" clip-rule="evenodd"
                  d="M38.2648 13.4271C38.9714 13.7333 39.2151 13.8388 39.2468 13.8526C39.8152 14.0984 40.1238 14.7293 39.953 15.3378C39.8204 15.8075 39.5286 16.015 39.1923 16.1726C38.9914 16.2669 38.7574 16.1743 38.6656 15.9722C38.5341 15.6832 38.2605 15.4701 37.9277 15.4273C37.9404 15.4289 20.1261 13.13 20.07 13.1268C19.507 13.088 18.9512 13.4609 18.7926 14.0463C18.5904 14.7395 19.0696 15.5183 19.8387 15.6144C20.9627 15.7593 23.5889 16.0982 26.4236 16.464C30.2948 16.9636 34.5549 17.5133 35.9094 17.6879C36.1042 17.7129 36.2497 17.8788 36.2497 18.0752V31.8754C36.2497 32.5859 35.6577 33.1575 34.9399 33.1241C34.2673 33.0928 33.7496 32.5136 33.7496 31.8403V18.5286C33.2082 18.7631 21.365 23.8952 20.4958 24.2719C20.1767 24.4102 19.8173 24.4086 19.502 24.2719C15.1975 22.4067 11.6003 20.8478 8.61829 19.5556C5.25918 18.0999 2.68063 16.9825 0.750981 16.1465C-0.245477 15.7159 -0.255165 14.2877 0.750981 13.8526L19.502 5.72715C19.8192 5.58965 20.1786 5.58965 20.4958 5.72715C31.874 10.6579 36.505 12.6645 38.2648 13.4271ZM8.04401 22.0318L18.5072 26.5657C19.4582 26.9784 20.5394 26.9787 21.4894 26.5657L31.9534 22.0318C32.2114 21.92 32.4994 22.1091 32.4994 22.3902V26.8751C32.4994 31.0808 27.0084 34.3755 19.9987 34.3755C12.989 34.3755 7.49805 31.0808 7.49805 26.8751V22.3902C7.49805 22.1091 7.78603 21.92 8.04401 22.0318Z"
                  fill="#4EAAFF"/>
        </g>
    </g>
    <defs>
        <clipPath id="clip0_188_34403">
            <rect width="40" height="40" fill="white"/>
        </clipPath>
        <clipPath id="clip1_188_34403">
            <rect width="40" height="40" fill="white"/>
        </clipPath>
    </defs>
</svg>
