<svg width="203" height="80" viewBox="0 0 203 80" fill="none" xmlns="http://www.w3.org/2000/svg">
    <path d="M15.9164 46.2801C15.5774 39.8796 18.4582 25.6017 32.6926 19.6936C46.927 13.7855 66.4145 12.6367 74.379 12.8008C72.3455 14.2778 68.1768 17.3303 67.7702 17.7242C67.3635 18.1181 68.6174 18.5448 69.2953 18.7089C74.5484 18.0524 85.8681 16.838 89.1217 17.2319C93.1887 17.7242 104.881 12.8008 110.982 13.2931C115.862 13.687 117.76 14.1137 118.099 14.2778C114.032 14.4419 104.983 16.1487 101.323 21.6629C101.323 22.1553 123.183 20.1859 131.316 17.2319C139.45 14.2778 154.193 11.8161 163.852 15.7548C158.43 16.0831 146.466 17.7242 141.992 21.6629C136.4 26.5864 128.266 32.4944 122.166 36.9255L122.166 36.9256C117.285 40.4705 106.237 42.0131 101.323 42.3414C104.373 43.3261 111.795 45.3939 117.082 45.7878C122.369 46.1816 125.047 46.9366 125.724 47.2648C122.505 47.1007 114.439 47.3633 107.931 49.7265C101.424 52.0898 92.0025 52.6806 88.105 52.6806C89.3476 53.7504 92.2779 55.7572 95.5206 56.6768C96.4458 56.772 97.2017 56.9301 97.764 57.1117C97.0108 57.0387 96.2577 56.8859 95.5206 56.6768C91.4275 56.2557 84.0204 57.066 75.3957 62.5274C62.1781 70.8973 36.2512 74.3437 26.0838 67.9432C17.9498 62.8228 15.9164 51.3677 15.9164 46.2801Z"
          fill="#FF842B" stroke="black"/>
    <path d="M40.3181 27.5709C36.7595 25.1092 33.7093 27.0785 29.134 31.5096C26.4174 33.9714 28.1172 38.8948 28.1172 39.8795C28.1172 40.8642 22.5252 40.8642 22.0168 47.2646C21.5084 53.6651 29.134 52.6804 29.134 54.1574C30.3541 60.0656 35.4039 61.8708 37.7763 62.0349C35.7428 62.6914 39.8097 66.466 42.86 67.4507C50.9939 70.0765 56.7554 63.6761 58.1111 60.0656C58.9584 60.0656 61.568 59.2778 65.2283 56.1268C68.8885 52.9758 65.3977 48.9058 63.1948 47.2646C63.8726 47.1005 65.8383 46.2799 68.2785 44.3106C71.3287 41.8489 69.2952 37.9101 67.7701 35.9407C66.245 33.9714 65.7366 33.479 65.2283 29.0479C64.7199 24.6168 58.6195 24.6168 56.586 25.1092C54.5525 25.6015 53.0274 22.6475 47.9437 22.6475C42.86 22.6475 43.8767 30.0326 40.3181 27.5709Z"
          fill="#FFE600"/>
    <path d="M56.4617 27.4935C54.6795 24.7651 51.824 22.3338 48.2595 23.2989C44.5224 24.3011 43.6025 27.9018 43.2193 31.1683C43.1043 32.1891 41.4562 32.0963 41.3795 31.0941C40.6896 21.4986 53.5296 17.9165 57.4391 27.0109C57.6691 27.5677 56.8067 28.0131 56.4809 27.4935H56.4617Z"
          fill="#3A3A3A"/>
    <path d="M42.6826 32.7466C41.7627 32.097 40.5937 31.5959 39.578 32.3011C38.5048 33.025 38.3515 34.4541 37.2017 35.0666C36.8567 35.2522 36.3968 35.178 36.2435 34.7696C35.5727 33.0435 37.4125 30.9463 38.9456 30.2224C40.7471 29.3687 42.5676 30.0554 43.9475 31.3175C44.8674 32.1527 43.6983 33.4519 42.7018 32.7466H42.6826Z"
          fill="#3A3A3A"/>
    <path d="M41.2071 28.4032C39.4248 27.9763 38.0641 27.0483 36.1286 27.3453C33.963 27.6794 32.0274 28.9971 30.6476 30.5933C29.2869 32.1709 28.367 34.1383 28.252 36.1984C28.1371 38.4442 29.5744 39.9661 29.9002 42.0448C29.9769 42.5645 29.3636 42.9543 28.9036 42.7315C26.6422 41.6365 26.029 38.2215 26.2015 35.9943C26.3739 33.4515 27.5813 31.0202 29.3636 29.1456C31.8933 26.4915 39.1565 23.1693 41.667 27.735C41.8395 28.032 41.6478 28.5146 41.2262 28.4218L41.2071 28.4032Z"
          fill="#3A3A3A"/>
    <path d="M31.1074 40.6155C30.9349 41.1908 30.705 41.7847 30.6092 42.3787C30.5133 42.8612 30.6667 43.3438 30.5517 43.8078C30.4367 44.1975 30.0534 44.3275 29.6893 44.1047C28.5394 43.3623 29.5168 41.1723 29.9192 40.2443C30.1875 39.6132 31.3182 39.9473 31.1074 40.6155Z"
          fill="#3A3A3A"/>
    <path d="M28.0029 40.801C25.2624 42.1187 23.0777 44.6615 23.1927 47.7424C23.346 51.4544 26.738 52.6237 30.0343 52.8835C31.0883 52.9578 31.0117 54.6839 29.9577 54.6839C25.7799 54.6653 21.6787 52.5495 21.3529 48.1322C21.0654 44.3274 23.8059 40.6525 27.5813 39.7245C28.3287 39.5389 28.6737 40.4669 27.9838 40.801H28.0029Z"
          fill="#3A3A3A"/>
    <path d="M30.8584 51.3065C29.8427 54.573 29.7276 57.654 33.1389 59.5842C36.2435 61.3474 39.6547 60.6236 42.5485 58.8604C43.6025 58.2294 44.5607 59.6028 43.6409 60.3823C40.3446 63.1292 35.1703 63.2777 31.6057 60.9206C28.1179 58.6191 27.1405 54.109 29.5552 50.7126C29.9576 50.1372 31.0692 50.6198 30.8584 51.3065Z"
          fill="#3A3A3A"/>
    <path d="M38.2557 60.9388C39.3481 65.5045 42.2227 67.6575 47.2054 66.9893C52.4181 66.2841 56.2509 62.8319 57.2857 57.8578C57.554 56.5772 59.4705 56.9298 59.3172 58.2105C58.5889 64.3167 52.8013 68.5855 46.688 69.0309C41.9352 69.3836 35.8219 66.581 37.0484 61.0501C37.1633 60.5119 38.1216 60.3077 38.2749 60.9388H38.2557Z"
          fill="#3A3A3A"/>
    <path d="M55.9443 24.4688C58.4931 22.7613 61.6935 23.3923 63.9357 25.3968C65.8713 27.1414 67.9602 31.5958 65.6413 33.7859C65.2006 34.1942 64.549 33.9901 64.434 33.4147C64.204 32.264 64.7214 31.1318 64.4915 29.9254C64.2615 28.719 63.6291 27.6054 62.7283 26.7517C61.0994 25.2112 58.6655 24.6729 56.5192 25.5267C55.8484 25.8051 55.3502 24.84 55.9443 24.4502V24.4688Z"
          fill="#3A3A3A"/>
    <path d="M61.3294 31.2988C66.5804 30.6863 70.5474 35.1407 70.6241 39.9849C70.7007 44.1794 66.063 50.4899 61.0803 48.207C60.6395 48.0028 60.5054 47.2975 60.9845 47.0377C62.8434 46.054 64.9898 46.3139 66.6379 44.7734C67.9794 43.5113 68.5927 41.6924 68.5735 39.9292C68.5352 35.6975 65.4497 33.0806 61.272 32.8764C60.3137 32.8207 60.4479 31.3916 61.3294 31.2988Z"
          fill="#3A3A3A"/>
    <path d="M64.3382 47.3158C67.3278 48.6707 68.286 52.1971 67.1362 55.0554C65.7564 58.5075 62.0385 60.6976 58.359 61.1059C56.96 61.2544 56.8258 59.2871 58.1482 59.0272C60.927 58.489 63.6675 57.2269 65.0281 54.6471C66.3888 52.0672 65.2389 50.2298 63.5525 48.1882C63.15 47.7056 63.7825 47.0746 64.3191 47.3158H64.3382Z"
          fill="#3A3A3A"/>
    <path d="M55.8292 32.2633C58.0522 33.2285 59.7387 35.1958 59.3554 37.6643C59.0104 39.9286 56.8641 42.3043 54.4494 42.5085C53.7403 42.5642 53.4911 41.729 53.9894 41.3206C55.3692 40.207 57.0365 39.6502 57.6306 37.8313C58.263 35.8825 56.9024 34.3421 55.2926 33.3584C54.641 32.9501 55.0818 31.9293 55.8292 32.2633Z"
          fill="#3A3A3A"/>
    <path d="M59.298 44.3086C60.4862 45.3294 61.0802 46.5543 60.7928 48.1134C60.5245 49.5796 59.5854 51.0459 58.1673 51.6583C57.7074 51.8625 57.3241 51.3428 57.4965 50.9531C57.9181 49.9879 58.723 49.2641 59.0871 48.2619C59.5087 47.1297 59.1255 46.0346 58.4356 45.0695C58.0523 44.5498 58.7997 43.8631 59.298 44.3086Z"
          fill="#3A3A3A"/>
    <path d="M40.1721 42.5086C39.4822 44.3646 39.0223 46.1092 40.3063 47.8724C41.5711 49.5985 43.3342 49.5057 45.1548 50.2481C45.6914 50.4708 45.5381 51.1204 45.0973 51.3432C42.7593 52.4753 39.7696 50.4708 38.6006 48.5592C37.3549 46.5361 37.2783 43.5665 39.1372 41.859C39.6546 41.3764 40.4212 41.859 40.1721 42.5086Z"
          fill="#3A3A3A"/>
    <path d="M54.0662 48.3925C53.817 49.3205 53.4146 50.0444 52.6097 50.6383C51.9198 51.1394 50.9041 51.6405 50.1375 51.0837C49.8692 50.8981 49.9076 50.5455 50.08 50.3042C50.4442 49.8031 51.0957 49.8031 51.6132 49.469C52.1498 49.1164 52.6097 48.5781 52.9163 48.0399C53.2229 47.4831 54.2578 47.7244 54.0662 48.3925Z"
          fill="#3A3A3A"/>
    <path d="M54.1237 57.858C53.7021 59.2314 53.0697 60.178 51.6707 60.7904C50.4059 61.3472 48.7002 61.5514 47.4162 60.9389C47.033 60.7533 47.0138 60.1408 47.4545 60.0109C48.4703 59.6954 49.5626 59.8253 50.5783 59.5098C51.594 59.2128 52.4756 58.4148 52.9355 57.4868C53.223 56.8928 54.3153 57.1712 54.1045 57.858H54.1237Z"
          fill="#3A3A3A"/>
    <path d="M50.425 37.1822C48.2403 36.1428 46.2089 36.7182 43.9092 36.7367C43.4876 36.7367 43.1043 36.1243 43.5834 35.883C46.0556 34.6209 48.8344 34.4353 51.1724 36.05C51.824 36.4955 51.1149 37.5163 50.425 37.1822Z"
          fill="#3A3A3A"/>
    <path d="M74.0161 13.147C61.636 14.1122 48.2402 13.7966 36.6267 18.6037C23.4035 24.0789 13.8022 37.4607 16.8493 51.622C23.7292 83.6937 64.2232 67.4351 83.694 58.0994C84.2498 57.821 84.7289 58.7305 84.2115 59.046C64.5681 70.8687 22.2345 85.0114 14.9904 52.1602C12.5374 41.0428 17.5392 29.7583 26.4123 22.6126C39.6739 11.9406 57.8032 13.1285 73.9586 12.3304C74.4952 12.3118 74.591 13.1099 74.0353 13.147H74.0161Z"
          fill="#3A3A3A"/>
    <path d="M75.4151 13.6847C72.9238 14.9282 70.6049 16.2645 68.3244 17.8236C67.9219 18.102 67.4429 17.5823 67.7495 17.2111C69.5701 15.021 72.4064 13.7589 75.0127 12.6267C75.7026 12.3298 76.0667 13.3506 75.4151 13.6847Z"
          fill="#3A3A3A"/>
    <path d="M68.9568 18.1583C77.8489 16.1167 86.7794 17.3788 95.8058 15.1516C103.395 13.277 110.39 11.3468 118.132 13.6854C118.765 13.871 118.63 14.8361 117.94 14.6876C108.435 12.7388 100.597 15.6156 91.4555 17.5458C84.0198 19.1234 76.5649 17.6015 69.1292 18.8822C68.7076 18.9564 68.5351 18.2511 68.9568 18.1583Z"
          fill="#3A3A3A"/>
    <path d="M118.094 14.687C114.683 14.8169 103.395 18.3433 101.843 22.2595C101.555 22.9648 100.463 22.4636 100.731 21.7584C100.789 21.6099 100.827 21.4614 100.884 21.3129C100.98 20.9788 101.248 20.7747 101.613 20.8118C123.479 23.5216 143.391 6.61339 165.027 15.4665C165.525 15.6707 165.276 16.5244 164.739 16.376C151.133 12.3484 139.634 15.4294 126.449 19.2713C124.399 19.8652 101.402 23.5958 101.862 22.278C101.651 22.9091 100.501 22.5564 100.712 21.9254C102.264 17.174 113.379 13.6476 118.017 13.7219C118.669 13.7219 118.784 14.687 118.113 14.7241L118.094 14.687Z"
          fill="#3A3A3A"/>
    <path d="M164.011 16.6546C148.699 16.5989 138.197 24.5983 127.446 34.0268C118.63 41.7849 110.85 42.2489 99.3512 43.511C98.6805 43.5852 98.393 42.5273 99.0829 42.3603C106.48 40.4671 113.839 41.4322 120.623 37.2934C125.644 34.231 129.362 29.6652 133.923 26.0645C142.298 19.4201 153.107 14.8172 164.05 15.9122C164.49 15.9493 164.471 16.6732 164.011 16.6732V16.6546Z"
          fill="#3A3A3A"/>
    <path d="M100.827 41.3768C108.933 46.6849 120.125 41.9707 127.561 48.0584C127.925 48.3554 127.561 48.9122 127.12 48.7266C118.285 45.0145 107.994 47.947 99.8878 42.4718C99.1021 41.9521 100.06 40.8757 100.846 41.3768H100.827Z"
          fill="#3A3A3A"/>
    <path d="M126.584 48.6152C118.458 46.518 111.865 50.3228 104.2 52.1231C98.278 53.5151 91.743 53.9048 85.6488 54.2018C85.1314 54.2204 85.0356 53.5893 85.4572 53.3852C92.1072 50.0815 101.593 51.1765 108.876 49.0607C115.047 47.2789 120.623 45.4229 126.871 47.7058C127.388 47.8914 127.12 48.7452 126.584 48.6152Z"
          fill="#3A3A3A"/>
    <path d="M87.2969 53.125C91.1681 54.9067 95.2692 55.3151 99.2554 56.6328C99.6386 56.7628 99.5236 57.4309 99.1212 57.4124C95.0584 57.3567 90.3632 56.0389 86.837 54.0901C86.2237 53.756 86.6645 52.7909 87.3161 53.1064L87.2969 53.125Z"
          fill="#3A3A3A"/>
    <path d="M99.4086 58.2479C96.304 57.988 93.2952 57.7096 90.1715 57.988C87.2394 58.2479 84.4797 59.0831 81.6051 59.6399C81.1451 59.7327 80.8769 59.0274 81.2985 58.8047C86.3578 56.1506 94.1002 55.7794 99.5619 57.4127C100.099 57.5797 99.9836 58.285 99.4086 58.2479Z"
          fill="#3A3A3A"/>
    <path d="M49.3901 12.7382C63.9741 10.678 77.8489 -0.513685 92.9312 2.49304C93.5253 2.6044 93.372 3.45816 92.7587 3.40248C76.9674 1.91768 64.8173 13.5919 49.4668 13.6476C48.8727 13.6476 48.7768 12.831 49.3709 12.7382H49.3901Z"
          fill="#3A3A3A"/>
    <path d="M92.9886 3.32846C90.8997 4.25646 85.802 8.54382 84.6714 8.09838C85.2846 8.33966 87.546 7.07758 88.1401 6.8363C93.966 4.49774 100.75 3.4027 106.959 2.5675C119.723 0.822854 134.345 0.247494 146.476 5.12878C146.974 5.33294 146.706 6.16814 146.188 6.01966C134.767 2.69742 123.076 2.12206 111.252 3.3099C105.12 3.92238 99.0253 4.94318 93.0653 6.5579C90.9189 7.13326 86.4728 7.61582 84.8247 9.19342C84.518 9.49039 83.8473 9.30478 83.9814 8.80366C84.8438 5.66702 89.9415 3.66254 92.7203 2.58606C93.2186 2.3819 93.4869 3.1243 93.0078 3.34702L92.9886 3.32846Z"
          fill="#3A3A3A"/>
    <path d="M146.438 6.01949C142.509 7.02173 138.58 8.78493 134.594 9.43453C134.153 9.50877 133.885 8.84061 134.288 8.63645C137.795 6.74333 142.26 5.68541 146.208 5.0358C146.783 4.943 147.013 5.871 146.438 6.01949Z"
          fill="#3A3A3A"/>
    <path d="M132.524 10.0286C155.981 3.40264 179.189 15.6337 202.493 17.4711C202.914 17.5083 202.895 18.2135 202.455 18.2135C178.461 17.8238 157.055 5.81545 132.697 10.7524C132.275 10.8452 132.103 10.1399 132.524 10.0286Z"
          fill="#3A3A3A"/>
    <path d="M201.63 18.6961C189.212 18.3991 179.113 24.8951 167.365 27.5121C156.518 29.9063 144.387 29.2382 135.514 36.6807C134.997 37.1076 134.211 36.291 134.709 35.8084C141.915 28.8484 152.934 28.6071 162.382 27.011C175.855 24.7281 187.698 17.0813 201.669 17.7681C202.205 17.7866 202.167 18.7146 201.63 18.6961Z"
          fill="#3A3A3A"/>
    <path d="M135.955 35.1965C140.861 35.3821 146.783 36.1245 151.133 38.4445C151.574 38.6858 151.382 39.3354 150.865 39.2612C148.316 38.89 145.824 37.962 143.295 37.4237C140.861 36.9226 138.389 36.6256 135.916 36.3844C135.227 36.3101 135.265 35.1594 135.974 35.178L135.955 35.1965Z"
          fill="#3A3A3A"/>
    <path d="M151.209 38.7591C142.049 39.4087 137.545 47.7421 130.071 51.6583C122.961 55.3889 114.357 56.1684 106.423 56.5767C105.886 56.5953 105.637 55.7786 106.212 55.6487C116.81 53.2359 126.66 53.4772 135.418 46.0717C140.209 42.0071 144.406 37.7012 151.133 37.7012C151.823 37.7012 151.938 38.7034 151.229 38.7405L151.209 38.7591Z"
          fill="#3A3A3A"/>
    <path d="M109.432 55.9463C111.635 57.4868 114.069 58.6747 116.254 60.2523C116.733 60.5863 116.331 61.3287 115.775 61.2359C98.4313 58.2478 82.1417 66.3028 65.0856 66.8411C64.5873 66.8411 64.319 66.0987 64.8748 65.9502C75.9325 63.2404 87.7185 61.1246 99.0445 59.9367C99.1212 59.9367 113.743 59.0273 113.648 59.7697C113.648 59.6212 109.221 57.3755 108.627 56.6331C108.224 56.1319 108.952 55.5937 109.432 55.9278V55.9463Z"
          fill="#3A3A3A"/>
    <path d="M50.7124 14.1303C49.4284 14.3159 48.2402 14.6685 46.937 14.7613C46.4004 14.7984 46.3621 14.0746 46.8604 13.9818C48.1252 13.722 49.3134 13.2765 50.5974 13.1095C51.2873 13.0167 51.3639 14.0375 50.6932 14.1303H50.7124Z"
          fill="#3A3A3A"/>
    <path d="M43.7558 12.256C36.4734 14.1676 29.9959 16.5433 23.9592 20.9977C23.5759 21.2761 23.0584 20.7379 23.3842 20.3852C28.4244 15.0214 36.4926 13.184 43.4683 11.5136C43.9666 11.4022 44.2541 12.126 43.7558 12.256Z"
          fill="#3A3A3A"/>
    <path d="M19.6282 25.6937C18.785 26.1206 18.0759 26.6959 17.4818 27.4383C16.9069 28.1436 16.5619 28.9788 16.0445 29.7212C15.757 30.1295 15.1821 29.7583 15.2204 29.35C15.4504 27.3455 17.3093 25.5823 19.0724 24.7286C19.6473 24.4502 20.1839 25.4153 19.609 25.7122L19.6282 25.6937Z"
          fill="#3A3A3A"/>
    <path d="M10.4101 47.0185C11.1 51.4915 11.7324 56.1872 13.3614 60.4374C15.5461 66.1725 19.3981 69.0307 24.8024 71.8333C25.2624 72.0745 25.0707 72.8355 24.5149 72.7056C12.384 69.7174 10.6784 57.2451 9.60517 47.0928C9.54768 46.5916 10.3334 46.5174 10.4101 47.0185Z"
          fill="#3A3A3A"/>
    <path d="M81.4901 67.6949C66.5804 70.1448 51.2491 77.9215 35.8794 75.9356C35.3044 75.8613 35.3236 74.9148 35.9177 74.9148C51.8431 75.2488 65.7563 67.3423 81.3943 66.7669C82.0076 66.7483 82.0842 67.5836 81.4901 67.6764V67.6949Z"
          fill="#3A3A3A"/>
    <path d="M35.9752 79.9819C33.7521 79.9819 31.3758 79.4437 29.2102 78.9982C28.7119 78.8869 28.7311 78.1816 29.2485 78.1259C31.4716 77.8475 33.8096 78.7755 36.0327 78.9611C36.6267 79.0168 36.5884 80.0005 35.9943 80.0005L35.9752 79.9819Z"
          fill="#3A3A3A"/>
    <path d="M75.6642 0.971401C66.8104 2.4562 59.3555 8.43253 50.3675 9.19349C49.9075 9.23061 49.6967 8.50677 50.1758 8.39541C58.9339 6.37237 66.6379 1.30548 75.5684 0.00627876C76.22 -0.0865214 76.2966 0.878601 75.6642 0.971401Z"
          fill="#3A3A3A"/>
    <path d="M9.68186 34.0453C7.99541 41.6364 4.37337 47.8354 7.9954 55.5378C8.20621 56.0019 7.53547 56.2617 7.22885 55.9276C1.99702 49.7842 6.53891 40.2444 8.70447 33.7484C8.87695 33.2101 9.79685 33.5071 9.68186 34.0453Z"
          fill="#3A3A3A"/>
    <path d="M2.43772 44.4021C2.0736 45.5343 1.80531 46.685 1.78615 47.8728C1.78615 48.9122 2.0161 49.8959 2.0736 50.9167C2.09276 51.3993 1.44117 51.5292 1.23037 51.1023C0.214665 48.9308 0.732126 46.2581 1.49869 44.1052C1.67117 43.604 2.6102 43.8824 2.43772 44.4021Z"
          fill="#3A3A3A"/>
    <path d="M5.69579 58.1177C8.01466 64.5024 11.4642 69.2352 17.4818 72.7801C17.9417 73.0585 17.6351 73.6896 17.1176 73.504C10.4868 71.1097 6.76896 64.6323 4.83338 58.4147C4.6609 57.8764 5.50415 57.5609 5.69579 58.0991V58.1177Z"
          fill="#3A3A3A"/>
    <path d="M169.377 32.746C164.184 32.8202 159.699 33.9524 154.678 35.066C154.122 35.1959 153.854 34.5092 154.372 34.2494C158.76 32.115 164.567 31.3354 169.416 31.7809C169.971 31.8366 169.952 32.746 169.377 32.746Z"
          fill="#3A3A3A"/>
</svg>
