<svg width="25" height="24" viewBox="0 0 25 24" fill="none" xmlns="http://www.w3.org/2000/svg">
    <path d="M24.4999 12.2739C24.5009 11.4562 24.4333 10.6399 24.2979 9.83398H13.2334V14.4555H19.5706C19.4409 15.1936 19.1665 15.8972 18.7637 16.5239C18.361 17.1506 17.8384 17.6875 17.2274 18.102V21.1019H21.0095C23.224 19.0137 24.4999 15.9254 24.4999 12.2739Z"
          fill="#4285F4"/>
    <path d="M13.2318 23.9999C16.3979 23.9999 19.0638 22.9366 21.0079 21.1033L17.2257 18.1034C16.1731 18.8334 14.8173 19.25 13.2318 19.25C10.1715 19.25 7.57405 17.1401 6.64522 14.2969H2.74902V17.3884C3.72555 19.3758 5.22293 21.0465 7.07402 22.214C8.9251 23.3815 11.057 23.9998 13.2318 23.9999Z"
          fill="#34A853"/>
    <path d="M6.64551 14.297C6.15447 12.8072 6.15447 11.1937 6.64551 9.70386V6.6123H2.74931C1.92783 8.28417 1.5 10.1293 1.5 12.0004C1.5 13.8715 1.92783 15.7167 2.74931 17.3886L6.64551 14.297Z"
          fill="#FBBC04"/>
    <path d="M13.2318 4.75062C14.9049 4.72266 16.5217 5.36922 17.7325 6.55055L21.0812 3.12567C18.9578 1.08587 16.1447 -0.0340099 13.2318 0.000787284C11.057 0.000888655 8.9251 0.619189 7.07402 1.78666C5.22293 2.95413 3.72555 4.62482 2.74902 6.61221L6.64522 9.70377C7.57405 6.86054 10.1715 4.75062 13.2318 4.75062Z"
          fill="#EA4335"/>
</svg>
