<svg width="50" height="14" viewBox="0 0 50 14" fill="none" xmlns="http://www.w3.org/2000/svg">
    <path d="M6.00006 0.00195312H2.11098C1.84485 0.00195312 1.61852 0.195299 1.577 0.458021L0.00408279 10.4307C-0.0271937 10.6274 0.125207 10.8048 0.324808 10.8048H2.18149C2.44763 10.8048 2.67396 10.6115 2.71547 10.3482L3.13969 7.65843C3.18063 7.39514 3.40753 7.20179 3.67309 7.20179H4.90425C7.46607 7.20179 8.9446 5.96211 9.33072 3.50548C9.50473 2.43071 9.33811 1.58625 8.83485 0.994838C8.28211 0.345425 7.30173 0.00195312 6.00006 0.00195312ZM6.44874 3.64424C6.23606 5.03974 5.16981 5.03974 4.13883 5.03974H3.55197L3.96368 2.43356C3.98813 2.27604 4.12461 2.16003 4.28384 2.16003H4.55282C5.25511 2.16003 5.91761 2.16003 6.25994 2.56037C6.46409 2.79921 6.52664 3.15405 6.44874 3.64424Z"
          fill="#253B80"/>
    <path d="M17.625 3.598H15.7626C15.6039 3.598 15.4669 3.71401 15.4424 3.87153L15.36 4.39242L15.2298 4.20363C14.8266 3.61847 13.9275 3.42285 13.0302 3.42285C10.9722 3.42285 9.21445 4.98156 8.87212 7.16806C8.69413 8.25876 8.94718 9.30169 9.56589 10.029C10.1334 10.6978 10.9455 10.9764 11.9116 10.9764C13.5698 10.9764 14.4894 9.91016 14.4894 9.91016L14.4063 10.4276C14.3751 10.6255 14.5275 10.803 14.7259 10.803H16.4035C16.6702 10.803 16.8954 10.6096 16.9375 10.3463L17.944 3.97218C17.9758 3.77599 17.824 3.598 17.625 3.598ZM15.029 7.22266C14.8493 8.28662 14.0049 9.00086 12.9278 9.00086C12.387 9.00086 11.9548 8.82742 11.6773 8.49873C11.4021 8.17232 11.2975 7.70773 11.385 7.19024C11.5528 6.13537 12.4115 5.39782 13.472 5.39782C14.0009 5.39782 14.4308 5.57353 14.714 5.90506C14.9978 6.24001 15.1103 6.70745 15.029 7.22266Z"
          fill="#253B80"/>
    <path d="M27.5438 3.59766H25.6724C25.4938 3.59766 25.326 3.68637 25.2248 3.83479L22.6437 7.63687L21.5496 3.98321C21.4808 3.75461 21.2698 3.59766 21.0309 3.59766H19.1919C18.9684 3.59766 18.8132 3.81602 18.8842 4.02643L20.9456 10.0759L19.0076 12.8117C18.8552 13.0272 19.0088 13.3235 19.2721 13.3235H21.1413C21.3187 13.3235 21.4847 13.2371 21.5854 13.0915L27.81 4.10661C27.959 3.89166 27.806 3.59766 27.5438 3.59766Z"
          fill="#253B80"/>
    <path d="M33.7404 0.000976562H29.8508C29.5852 0.000976562 29.3589 0.194322 29.3174 0.457044L27.7444 10.4297C27.7132 10.6264 27.8656 10.8039 28.064 10.8039H30.06C30.2454 10.8039 30.4041 10.6685 30.4331 10.4843L30.8795 7.65745C30.9204 7.39416 31.1473 7.20082 31.4129 7.20082H32.6435C35.2059 7.20082 36.6838 5.96113 37.0705 3.50451C37.2451 2.42974 37.0773 1.58527 36.5741 0.993862C36.0219 0.344449 35.0421 0.000976562 33.7404 0.000976562ZM34.1891 3.64326C33.977 5.03876 32.9107 5.03876 31.8792 5.03876H31.2929L31.7052 2.43258C31.7296 2.27506 31.865 2.15905 32.0248 2.15905H32.2937C32.9955 2.15905 33.6585 2.15905 34.0009 2.55939C34.205 2.79823 34.267 3.15307 34.1891 3.64326Z"
          fill="#179BD7"/>
    <path d="M45.3644 3.598H43.5031C43.3433 3.598 43.2074 3.71401 43.1835 3.87153L43.1011 4.39242L42.9703 4.20363C42.5671 3.61847 41.6686 3.42285 40.7713 3.42285C38.7133 3.42285 36.9561 4.98156 36.6138 7.16806C36.4364 8.25876 36.6883 9.30169 37.307 10.029C37.8756 10.6978 38.6866 10.9764 39.6527 10.9764C41.3109 10.9764 42.2305 9.91016 42.2305 9.91016L42.1474 10.4276C42.1162 10.6255 42.2686 10.803 42.4682 10.803H44.1452C44.4107 10.803 44.637 10.6096 44.6786 10.3463L45.6857 3.97218C45.7164 3.77599 45.564 3.598 45.3644 3.598ZM42.7684 7.22266C42.5899 8.28662 41.7443 9.00086 40.6672 9.00086C40.1276 9.00086 39.6942 8.82742 39.4167 8.49873C39.1415 8.17232 39.038 7.70773 39.1244 7.19024C39.2933 6.13537 40.1509 5.39782 41.2114 5.39782C41.7403 5.39782 42.1702 5.57353 42.4534 5.90506C42.7383 6.24001 42.8509 6.70745 42.7684 7.22266Z"
          fill="#179BD7"/>
    <path d="M47.5599 0.274095L45.9637 10.4293C45.9324 10.626 46.0848 10.8035 46.2833 10.8035H47.888C48.1547 10.8035 48.3811 10.6101 48.422 10.3468L49.9961 0.374749C50.0273 0.177991 49.8749 0 49.6765 0H47.8795C47.7208 0.000568663 47.5844 0.116576 47.5599 0.274095Z"
          fill="#179BD7"/>
</svg>
